<svg width="171" height="38" viewBox="0 0 171 38" fill="none" xmlns="http://www.w3.org/2000/svg">
<g clip-path="url(#clip0_106:1432)">
<path d="M38 19.1161C38 8.55857 29.4934 0 19 0C8.50658 0 0 8.55857 0 19.1161C0 28.6575 6.94803 36.5659 16.0312 38V24.6419H11.207V19.1161H16.0312V14.9046C16.0312 10.1136 18.8678 7.46723 23.2078 7.46723C25.2866 7.46723 27.4609 7.84059 27.4609 7.84059V12.545H25.0651C22.7048 12.545 21.9688 14.0185 21.9688 15.5302V19.1161H27.2383L26.3959 24.6419H21.9688V38C31.052 36.5659 38 28.6575 38 19.1161Z" fill="#24A3FF"/>
</g>
<path d="M56.2793 8.59766H54.4805V11.9609H50.8828V8.59766H49.0781V17H50.8828V13.5781H54.4805V17H56.2793V8.59766ZM63.7656 13.4609H61.7207L62.7461 10.7012L63.7656 13.4609ZM64.3633 15.0195L65.084 17H67.0059L63.7012 8.59766H61.7852L58.4805 17H60.4023L61.123 15.0195H64.3633ZM79.7715 8.59766H77.9668V15.3828H75.3887V8.59766H73.5898V15.3828H71.0117V8.59766H69.207V17H79.7715V8.59766ZM87.2461 13.4609H85.2012L86.2266 10.7012L87.2461 13.4609ZM87.8438 15.0195L88.5645 17H90.4863L87.1816 8.59766H85.2656L81.9609 17H83.8828L84.6035 15.0195H87.8438ZM100.232 8.42188C98.9492 8.42188 97.8652 8.84961 96.9863 9.70508C96.1074 10.5605 95.668 11.5918 95.668 12.7988C95.668 14.0059 96.1074 15.043 96.9863 15.8984C97.8652 16.7539 98.9492 17.1816 100.232 17.1816C100.666 17.1816 101.088 17.123 101.498 17C101.908 16.8828 102.236 16.748 102.488 16.6016C102.74 16.4551 102.975 16.2852 103.197 16.0918C103.42 15.8984 103.561 15.7637 103.625 15.6875C103.689 15.6113 103.736 15.5469 103.771 15.5L102.688 14.3574L102.594 14.4805C102.529 14.5684 102.43 14.668 102.289 14.7852C102.148 14.9023 101.984 15.0195 101.803 15.1367C101.615 15.2539 101.387 15.3535 101.105 15.4355C100.824 15.5176 100.537 15.5586 100.232 15.5586C99.4473 15.5586 98.791 15.2949 98.2637 14.7676C97.7363 14.2402 97.4727 13.584 97.4727 12.7988C97.4727 12.0137 97.7363 11.3574 98.2637 10.8301C98.791 10.3027 99.4473 10.0391 100.232 10.0391C100.514 10.0391 100.795 10.0859 101.07 10.1738C101.34 10.2617 101.562 10.3555 101.732 10.4609C101.896 10.5664 102.055 10.6836 102.195 10.8184C102.336 10.959 102.43 11.0527 102.471 11.1113C102.512 11.1699 102.547 11.2109 102.57 11.2402L103.713 10.0977L103.578 9.92188C103.49 9.81055 103.35 9.66992 103.15 9.50586C102.951 9.3418 102.729 9.17773 102.471 9.01367C102.213 8.84961 101.891 8.71484 101.492 8.59766C101.094 8.48047 100.672 8.42188 100.232 8.42188ZM105.369 8.59766V10.2207H107.771V17H109.57V10.2207H111.967V8.59766H105.369ZM115.668 12.8047C115.668 12.0312 115.926 11.375 116.453 10.8418C116.975 10.3086 117.613 10.0391 118.363 10.0391C119.113 10.0391 119.752 10.3086 120.273 10.8418C120.801 11.375 121.059 12.0312 121.059 12.8047C121.059 13.5781 120.801 14.2344 120.273 14.7617C119.752 15.2949 119.113 15.5586 118.363 15.5586C117.613 15.5586 116.975 15.2949 116.453 14.7617C115.926 14.2344 115.668 13.5781 115.668 12.8047ZM113.805 12.7988C113.805 14.0059 114.244 15.043 115.123 15.8984C116.002 16.7539 117.086 17.1816 118.363 17.1816C119.641 17.1816 120.725 16.7539 121.604 15.8984C122.482 15.043 122.922 14.0059 122.922 12.7988C122.922 11.5918 122.482 10.5605 121.604 9.70508C120.725 8.84961 119.641 8.42188 118.363 8.42188C117.086 8.42188 116.002 8.84961 115.123 9.70508C114.244 10.5605 113.805 11.5918 113.805 12.7988ZM125.609 8.59766V17H127.414V14.2402H129.148C130.016 14.2402 130.73 13.9707 131.299 13.4316C131.861 12.8926 132.148 12.2188 132.148 11.4219C132.148 10.625 131.861 9.95117 131.293 9.41211C130.725 8.87305 130.01 8.60352 129.148 8.60352L125.609 8.59766ZM129.09 10.2266C129.447 10.2266 129.746 10.3379 129.986 10.5723C130.227 10.8066 130.35 11.0879 130.35 11.4277C130.35 11.7617 130.227 12.043 129.986 12.2773C129.746 12.5059 129.447 12.623 129.09 12.623H127.414V10.2266H129.09ZM134.766 17H136.57V8.59766H134.766V17ZM146.928 8.59766H145.129V11.9609H141.531V8.59766H139.727V17H141.531V13.5781H145.129V17H146.928V8.59766ZM151.895 8.59766H150.09V17H151.895V14.5977L152.973 13.4023L155.434 17H157.531L154.174 12.0781L157.291 8.59766H155.193L151.895 12.2598V8.59766ZM163.934 13.4609H161.889L162.914 10.7012L163.934 13.4609ZM164.531 15.0195L165.252 17H167.174L163.869 8.59766H161.953L158.648 17H160.57L161.291 15.0195H164.531ZM52.8867 33C53.7188 33 54.3984 32.7598 54.9375 32.2734C55.4707 31.793 55.7402 31.2129 55.7402 30.5391C55.7402 30.2695 55.6875 30.0176 55.5879 29.7832C55.4883 29.5488 55.377 29.3613 55.2598 29.2207C55.1367 29.0859 54.9961 28.9629 54.8379 28.8457C54.6738 28.7285 54.5625 28.6582 54.5039 28.6289C54.4453 28.5996 54.3926 28.5762 54.3574 28.5586L54.457 28.5C54.5156 28.4648 54.5977 28.3945 54.6914 28.3008C54.7852 28.207 54.8848 28.0898 54.9844 27.9551C55.0781 27.8262 55.1602 27.6562 55.2246 27.457C55.2832 27.2578 55.3184 27.041 55.3184 26.8184C55.3184 26.2324 55.0664 25.7109 54.5684 25.2656C54.0703 24.8203 53.4434 24.5977 52.6816 24.5977H49.0781V33H52.8867ZM50.8828 31.5V29.3379H52.7988C53.127 29.3379 53.3965 29.4434 53.6133 29.6543C53.8301 29.8652 53.9414 30.1172 53.9414 30.4219C53.9414 30.7266 53.8301 30.9844 53.6133 31.1895C53.3965 31.4004 53.127 31.5 52.7988 31.5H50.8828ZM52.5586 26.0977C52.8516 26.0977 53.0859 26.1797 53.2617 26.3438C53.4316 26.5078 53.5195 26.7305 53.5195 27C53.5195 27.2754 53.4316 27.4922 53.2617 27.6562C53.0859 27.8203 52.8516 27.9023 52.5586 27.9023H50.8828V26.0977H52.5586ZM63.084 28.6816C63.084 28.1367 63.2656 27.6855 63.6348 27.334C63.998 26.9824 64.4961 26.7949 65.123 26.7598V30.5977C64.502 30.5684 64.0039 30.375 63.6348 30.0234C63.2656 29.6719 63.084 29.2266 63.084 28.6816ZM66.9219 32.1621C68.041 32.1328 68.9609 31.7812 69.6816 31.1074C70.4023 30.4336 70.7656 29.625 70.7656 28.6816C70.7656 27.7383 70.4023 26.9297 69.6816 26.2559C68.9609 25.5879 68.041 25.2363 66.9219 25.2012V24.2988H65.123V25.2012C64.0039 25.2363 63.084 25.5879 62.3633 26.2559C61.6426 26.9297 61.2852 27.7383 61.2852 28.6816C61.2852 29.625 61.6426 30.4336 62.3633 31.1074C63.0781 31.7812 63.998 32.1328 65.123 32.1621V33.2402H66.9219V32.1621ZM68.9668 28.6816C68.9668 29.2266 68.7793 29.6719 68.4102 30.0234C68.041 30.375 67.543 30.5684 66.9219 30.5977V26.7598C67.543 26.7949 68.041 26.9824 68.4102 27.334C68.7793 27.6855 68.9668 28.1367 68.9668 28.6816ZM75.1289 31.3828V29.5195H78.5449V27.9023H75.1289V26.2207H79.5059V24.5977H73.3242V33H79.6289V31.3828H75.1289ZM86.0254 22.5C85.8145 22.5 85.6445 22.4355 85.5098 22.2949C85.3691 22.1602 85.3047 21.9902 85.3047 21.7852H84.1094C84.1094 22.3242 84.2852 22.7695 84.6426 23.1211C84.9941 23.4727 85.457 23.6484 86.0254 23.6484C86.5938 23.6484 87.0566 23.4727 87.4141 23.1211C87.7656 22.7695 87.9473 22.3242 87.9473 21.7852H86.7461C86.7461 21.9902 86.6758 22.1602 86.541 22.2949C86.4004 22.4355 86.2305 22.5 86.0254 22.5ZM89.8047 33V24.5977H88.2461L84.1094 29.9414V24.5977H82.3047V33H83.8691L88.0059 27.6621V33H89.8047ZM97.0449 24.4219C95.7617 24.4219 94.6777 24.8496 93.7988 25.7051C92.9199 26.5605 92.4805 27.5918 92.4805 28.7988C92.4805 30.0059 92.9199 31.043 93.7988 31.8984C94.6777 32.7539 95.7617 33.1816 97.0449 33.1816C97.4785 33.1816 97.9004 33.123 98.3105 33C98.7207 32.8828 99.0488 32.748 99.3008 32.6016C99.5527 32.4551 99.7871 32.2852 100.01 32.0918C100.232 31.8984 100.373 31.7637 100.438 31.6875C100.502 31.6113 100.549 31.5469 100.584 31.5L99.5 30.3574L99.4062 30.4805C99.3418 30.5684 99.2422 30.668 99.1016 30.7852C98.9609 30.9023 98.7969 31.0195 98.6152 31.1367C98.4277 31.2539 98.1992 31.3535 97.918 31.4355C97.6367 31.5176 97.3496 31.5586 97.0449 31.5586C96.2598 31.5586 95.6035 31.2949 95.0762 30.7676C94.5488 30.2402 94.2852 29.584 94.2852 28.7988C94.2852 28.0137 94.5488 27.3574 95.0762 26.8301C95.6035 26.3027 96.2598 26.0391 97.0449 26.0391C97.3262 26.0391 97.6074 26.0859 97.8828 26.1738C98.1523 26.2617 98.375 26.3555 98.5449 26.4609C98.709 26.5664 98.8672 26.6836 99.0078 26.8184C99.1484 26.959 99.2422 27.0527 99.2832 27.1113C99.3242 27.1699 99.3594 27.2109 99.3828 27.2402L100.525 26.0977L100.391 25.9219C100.303 25.8105 100.162 25.6699 99.9629 25.5059C99.7637 25.3418 99.541 25.1777 99.2832 25.0137C99.0254 24.8496 98.7031 24.7148 98.3047 24.5977C97.9062 24.4805 97.4844 24.4219 97.0449 24.4219ZM104.824 31.3828V29.3379H106.623C106.939 29.3379 107.209 29.4434 107.432 29.6484C107.648 29.8535 107.76 30.0938 107.76 30.3633C107.76 30.6328 107.648 30.873 107.432 31.0781C107.209 31.2832 106.939 31.3828 106.623 31.3828H104.824ZM106.682 33C107.502 33 108.188 32.7422 108.738 32.2266C109.283 31.7109 109.559 31.0898 109.559 30.3633C109.559 29.6367 109.283 29.0098 108.738 28.4941C108.188 27.9785 107.502 27.7207 106.682 27.7207H104.824V26.2207H108.844V24.5977H103.02V33H106.682ZM113.195 24.5977H111.279L114.279 30.2402L114.039 30.6621C113.717 31.2246 113.254 31.5 112.65 31.5C112.369 31.5 112.129 31.4648 111.93 31.3828V32.9414L112.053 32.9766C112.135 33.0117 112.252 33.041 112.41 33.0703C112.574 33.1055 112.732 33.1172 112.891 33.1172C113.582 33.1172 114.156 32.9297 114.619 32.5547C115.088 32.1797 115.492 31.6289 115.832 30.9023L118.773 24.5977H116.852L115.17 28.5586L113.195 24.5977ZM120.852 33H127.092V34.7402H128.891V31.3828H127.871V24.5977H126.072V31.3828H122.656V24.5977H120.852V33ZM131.273 33H133.078V24.5977H131.273V33Z" fill="#24A3FF"/>
<defs>
<clipPath id="clip0_106:1432">
<rect width="38" height="38" fill="white"/>
</clipPath>
</defs>
</svg>
